{
	"asset":{
		"generator":"Khronos glTF Blender I/O v4.4.55",
		"version":"2.0"
	},
	"scene":0,
	"scenes":[
		{
			"name":"Scene",
			"nodes":[
				0,
				1,
				2,
				3,
				4,
				5,
				6
			]
		}
	],
	"nodes":[
		{
			"mesh":0,
			"name":"Level_Interior.003",
			"translation":[
				0,
				0.9647512435913086,
				0
			]
		},
		{
			"mesh":1,
			"name":"NurbsPath",
			"scale":[
				1,
				0.74046790599823,
				1
			],
			"translation":[
				0,
				-0.05739825963973999,
				-0.17880909144878387
			]
		},
		{
			"name":"B\u00e9zierCircle",
			"rotation":[
				0,
				0,
				-0.7372773289680481,
				0.6755902171134949
			]
		},
		{
			"mesh":2,
			"name":"Cube",
			"scale":[
				0.2712590992450714,
				0.07205347716808319,
				1.198848009109497
			],
			"translation":[
				9.686025619506836,
				0.015289723873138428,
				0.5774211287498474
			]
		},
		{
			"mesh":3,
			"name":"Cube.001",
			"rotation":[
				0.09381844103336334,
				0,
				0,
				0.9955894351005554
			],
			"scale":[
				0.326809287071228,
				2.339601993560791,
				0.326809287071228
			],
			"translation":[
				-9.000000953674316,
				2.6424384117126465,
				0.1409912109375
			]
		},
		{
			"mesh":4,
			"name":"Cube.002",
			"rotation":[
				-0.09122424572706223,
				0,
				0,
				0.9958303570747375
			],
			"scale":[
				0.326809287071228,
				3.1428136825561523,
				0.3312665820121765
			],
			"translation":[
				-3.8866913318634033,
				4.013620376586914,
				0.23175907135009766
			]
		},
		{
			"mesh":5,
			"name":"Cube.003",
			"rotation":[
				-0.09122424572706223,
				0,
				0,
				0.9958303570747375
			],
			"scale":[
				0.326809287071228,
				3.1428136825561523,
				0.3312665820121765
			],
			"translation":[
				4.493299961090088,
				4.013620376586914,
				0.23175907135009766
			]
		}
	],
	"materials":[
		{
			"doubleSided":true,
			"name":"Material",
			"pbrMetallicRoughness":{
				"baseColorFactor":[
					0.800000011920929,
					0.800000011920929,
					0.800000011920929,
					1
				],
				"metallicFactor":0,
				"roughnessFactor":0.5
			}
		}
	],
	"meshes":[
		{
			"name":"Cube.006",
			"primitives":[
				{
					"attributes":{
						"POSITION":0,
						"NORMAL":1,
						"TEXCOORD_0":2
					},
					"indices":3,
					"material":0
				}
			]
		},
		{
			"name":"NurbsPath",
			"primitives":[
				{
					"attributes":{
						"POSITION":4,
						"NORMAL":5,
						"TEXCOORD_0":6
					},
					"indices":7
				}
			]
		},
		{
			"name":"Cube.016",
			"primitives":[
				{
					"attributes":{
						"POSITION":8,
						"NORMAL":9,
						"TEXCOORD_0":10
					},
					"indices":11
				}
			]
		},
		{
			"name":"Cube.009",
			"primitives":[
				{
					"attributes":{
						"POSITION":12,
						"NORMAL":13,
						"TEXCOORD_0":14
					},
					"indices":15
				}
			]
		},
		{
			"name":"Cube.010",
			"primitives":[
				{
					"attributes":{
						"POSITION":16,
						"NORMAL":17,
						"TEXCOORD_0":18
					},
					"indices":19
				}
			]
		},
		{
			"name":"Cube.015",
			"primitives":[
				{
					"attributes":{
						"POSITION":20,
						"NORMAL":21,
						"TEXCOORD_0":22
					},
					"indices":23
				}
			]
		}
	],
	"accessors":[
		{
			"bufferView":0,
			"componentType":5126,
			"count":209,
			"max":[
				10.059103012084961,
				5.5999250411987305,
				5.30757999420166
			],
			"min":[
				-9.330305099487305,
				-1,
				-5.30757999420166
			],
			"type":"VEC3"
		},
		{
			"bufferView":1,
			"componentType":5126,
			"count":209,
			"type":"VEC3"
		},
		{
			"bufferView":2,
			"componentType":5126,
			"count":209,
			"type":"VEC2"
		},
		{
			"bufferView":3,
			"componentType":5123,
			"count":948,
			"type":"SCALAR"
		},
		{
			"bufferView":4,
			"componentType":5126,
			"count":2940,
			"max":[
				12.289484024047852,
				0.4897839426994324,
				1.6329920291900635
			],
			"min":[
				-10.740234375,
				0.07693427801132202,
				-8.207143783569336
			],
			"type":"VEC3"
		},
		{
			"bufferView":5,
			"componentType":5126,
			"count":2940,
			"type":"VEC3"
		},
		{
			"bufferView":6,
			"componentType":5126,
			"count":2940,
			"type":"VEC2"
		},
		{
			"bufferView":7,
			"componentType":5123,
			"count":16128,
			"type":"SCALAR"
		},
		{
			"bufferView":8,
			"componentType":5126,
			"count":288,
			"max":[
				1,
				1,
				1
			],
			"min":[
				-68.75999450683594,
				-1,
				-1.2640000581741333
			],
			"type":"VEC3"
		},
		{
			"bufferView":9,
			"componentType":5126,
			"count":288,
			"type":"VEC3"
		},
		{
			"bufferView":10,
			"componentType":5126,
			"count":288,
			"type":"VEC2"
		},
		{
			"bufferView":11,
			"componentType":5123,
			"count":432,
			"type":"SCALAR"
		},
		{
			"bufferView":12,
			"componentType":5126,
			"count":72,
			"max":[
				1.122778296470642,
				1.1469577550888062,
				11.26308536529541
			],
			"min":[
				-1.1227842569351196,
				-1.4655475616455078,
				-9.457925796508789
			],
			"type":"VEC3"
		},
		{
			"bufferView":13,
			"componentType":5126,
			"count":72,
			"type":"VEC3"
		},
		{
			"bufferView":14,
			"componentType":5126,
			"count":72,
			"type":"VEC2"
		},
		{
			"bufferView":15,
			"componentType":5123,
			"count":108,
			"type":"SCALAR"
		},
		{
			"bufferView":16,
			"componentType":5126,
			"count":96,
			"max":[
				1.2160813808441162,
				1.0510914325714111,
				14.901166915893555
			],
			"min":[
				-8.047022819519043,
				-1.7365798950195312,
				-20.831134796142578
			],
			"type":"VEC3"
		},
		{
			"bufferView":17,
			"componentType":5126,
			"count":96,
			"type":"VEC3"
		},
		{
			"bufferView":18,
			"componentType":5126,
			"count":96,
			"type":"VEC2"
		},
		{
			"bufferView":19,
			"componentType":5123,
			"count":144,
			"type":"SCALAR"
		},
		{
			"bufferView":20,
			"componentType":5126,
			"count":96,
			"max":[
				1.2160813808441162,
				1.0510914325714111,
				15.336127281188965
			],
			"min":[
				-7.386021614074707,
				-1.7365798950195312,
				-21.4224853515625
			],
			"type":"VEC3"
		},
		{
			"bufferView":21,
			"componentType":5126,
			"count":96,
			"type":"VEC3"
		},
		{
			"bufferView":22,
			"componentType":5126,
			"count":96,
			"type":"VEC2"
		},
		{
			"bufferView":23,
			"componentType":5123,
			"count":144,
			"type":"SCALAR"
		}
	],
	"bufferViews":[
		{
			"buffer":0,
			"byteLength":2508,
			"byteOffset":0,
			"target":34962
		},
		{
			"buffer":0,
			"byteLength":2508,
			"byteOffset":2508,
			"target":34962
		},
		{
			"buffer":0,
			"byteLength":1672,
			"byteOffset":5016,
			"target":34962
		},
		{
			"buffer":0,
			"byteLength":1896,
			"byteOffset":6688,
			"target":34963
		},
		{
			"buffer":0,
			"byteLength":35280,
			"byteOffset":8584,
			"target":34962
		},
		{
			"buffer":0,
			"byteLength":35280,
			"byteOffset":43864,
			"target":34962
		},
		{
			"buffer":0,
			"byteLength":23520,
			"byteOffset":79144,
			"target":34962
		},
		{
			"buffer":0,
			"byteLength":32256,
			"byteOffset":102664,
			"target":34963
		},
		{
			"buffer":0,
			"byteLength":3456,
			"byteOffset":134920,
			"target":34962
		},
		{
			"buffer":0,
			"byteLength":3456,
			"byteOffset":138376,
			"target":34962
		},
		{
			"buffer":0,
			"byteLength":2304,
			"byteOffset":141832,
			"target":34962
		},
		{
			"buffer":0,
			"byteLength":864,
			"byteOffset":144136,
			"target":34963
		},
		{
			"buffer":0,
			"byteLength":864,
			"byteOffset":145000,
			"target":34962
		},
		{
			"buffer":0,
			"byteLength":864,
			"byteOffset":145864,
			"target":34962
		},
		{
			"buffer":0,
			"byteLength":576,
			"byteOffset":146728,
			"target":34962
		},
		{
			"buffer":0,
			"byteLength":216,
			"byteOffset":147304,
			"target":34963
		},
		{
			"buffer":0,
			"byteLength":1152,
			"byteOffset":147520,
			"target":34962
		},
		{
			"buffer":0,
			"byteLength":1152,
			"byteOffset":148672,
			"target":34962
		},
		{
			"buffer":0,
			"byteLength":768,
			"byteOffset":149824,
			"target":34962
		},
		{
			"buffer":0,
			"byteLength":288,
			"byteOffset":150592,
			"target":34963
		},
		{
			"buffer":0,
			"byteLength":1152,
			"byteOffset":150880,
			"target":34962
		},
		{
			"buffer":0,
			"byteLength":1152,
			"byteOffset":152032,
			"target":34962
		},
		{
			"buffer":0,
			"byteLength":768,
			"byteOffset":153184,
			"target":34962
		},
		{
			"buffer":0,
			"byteLength":288,
			"byteOffset":153952,
			"target":34963
		}
	],
	"buffers":[
		{
			"byteLength":154240,
			"uri":"OOP_Level_BO.bin"
		}
	]
}
