{
	"asset":{
		"generator":"Khronos glTF Blender I/O v4.4.55",
		"version":"2.0"
	},
	"scene":0,
	"scenes":[
		{
			"name":"Scene",
			"nodes":[
				0
			]
		}
	],
	"nodes":[
		{
			"mesh":0,
			"name":"Cube.019"
		}
	],
	"materials":[
		{
			"doubleSided":true,
			"name":"Material",
			"pbrMetallicRoughness":{
				"baseColorFactor":[
					0.800000011920929,
					0.800000011920929,
					0.800000011920929,
					1
				],
				"metallicFactor":0,
				"roughnessFactor":0.5
			}
		}
	],
	"meshes":[
		{
			"name":"Cube.076",
			"primitives":[
				{
					"attributes":{
						"POSITION":0,
						"NORMAL":1,
						"TEXCOORD_0":2
					},
					"indices":3
				},
				{
					"attributes":{
						"POSITION":4,
						"NORMAL":5,
						"TEXCOORD_0":6
					},
					"indices":7,
					"material":0
				}
			]
		}
	],
	"accessors":[
		{
			"bufferView":0,
			"componentType":5126,
			"count":90598,
			"max":[
				12.289483070373535,
				6.757477283477783,
				5.696648597717285
			],
			"min":[
				-10.740233421325684,
				-2.1048498153686523,
				-8.526049613952637
			],
			"type":"VEC3"
		},
		{
			"bufferView":1,
			"componentType":5126,
			"count":90598,
			"type":"VEC3"
		},
		{
			"bufferView":2,
			"componentType":5126,
			"count":90598,
			"type":"VEC2"
		},
		{
			"bufferView":3,
			"componentType":5125,
			"count":403380,
			"type":"SCALAR"
		},
		{
			"bufferView":4,
			"componentType":5126,
			"count":28374,
			"max":[
				13.652417182922363,
				6.886833190917969,
				5.668800354003906
			],
			"min":[
				-10.679465293884277,
				-0.4053446054458618,
				-11.116043090820312
			],
			"type":"VEC3"
		},
		{
			"bufferView":5,
			"componentType":5126,
			"count":28374,
			"type":"VEC3"
		},
		{
			"bufferView":6,
			"componentType":5126,
			"count":28374,
			"type":"VEC2"
		},
		{
			"bufferView":7,
			"componentType":5123,
			"count":42564,
			"type":"SCALAR"
		}
	],
	"bufferViews":[
		{
			"buffer":0,
			"byteLength":1087176,
			"byteOffset":0,
			"target":34962
		},
		{
			"buffer":0,
			"byteLength":1087176,
			"byteOffset":1087176,
			"target":34962
		},
		{
			"buffer":0,
			"byteLength":724784,
			"byteOffset":2174352,
			"target":34962
		},
		{
			"buffer":0,
			"byteLength":1613520,
			"byteOffset":2899136,
			"target":34963
		},
		{
			"buffer":0,
			"byteLength":340488,
			"byteOffset":4512656,
			"target":34962
		},
		{
			"buffer":0,
			"byteLength":340488,
			"byteOffset":4853144,
			"target":34962
		},
		{
			"buffer":0,
			"byteLength":226992,
			"byteOffset":5193632,
			"target":34962
		},
		{
			"buffer":0,
			"byteLength":85128,
			"byteOffset":5420624,
			"target":34963
		}
	],
	"buffers":[
		{
			"byteLength":5505752,
			"uri":"OOP_Level_BO.bin"
		}
	]
}
