{
	"asset":{
		"generator":"Khronos glTF Blender I/O v4.4.55",
		"version":"2.0"
	},
	"extensionsUsed":[
		"KHR_materials_emissive_strength"
	],
	"scene":0,
	"scenes":[
		{
			"name":"Scene",
			"nodes":[
				0
			]
		}
	],
	"nodes":[
		{
			"mesh":0,
			"name":"Bloom_3 Duplicator"
		}
	],
	"materials":[
		{
			"doubleSided":true,
			"name":"Material",
			"pbrMetallicRoughness":{
				"baseColorFactor":[
					0.800000011920929,
					0.800000011920929,
					0.800000011920929,
					1
				],
				"metallicFactor":0,
				"roughnessFactor":0.5
			}
		},
		{
			"doubleSided":true,
			"emissiveFactor":[
				1,
				1,
				1
			],
			"emissiveTexture":{
				"index":0
			},
			"extensions":{
				"KHR_materials_emissive_strength":{
					"emissiveStrength":6.199999809265137
				}
			},
			"name":"Sky_Mat",
			"pbrMetallicRoughness":{
				"baseColorTexture":{
					"index":1
				},
				"metallicFactor":0,
				"roughnessFactor":0.5
			}
		},
		{
			"alphaMode":"BLEND",
			"doubleSided":true,
			"name":"Bloomen",
			"pbrMetallicRoughness":{
				"baseColorTexture":{
					"index":2
				},
				"metallicFactor":0,
				"roughnessFactor":0.5
			}
		}
	],
	"meshes":[
		{
			"name":"Bloom_3 Duplicator",
			"primitives":[
				{
					"attributes":{
						"POSITION":0,
						"NORMAL":1,
						"TEXCOORD_0":2
					},
					"indices":3
				},
				{
					"attributes":{
						"POSITION":4,
						"NORMAL":5,
						"TEXCOORD_0":6
					},
					"indices":7,
					"material":0
				},
				{
					"attributes":{
						"POSITION":8,
						"NORMAL":9,
						"TEXCOORD_0":10
					},
					"indices":11,
					"material":1
				},
				{
					"attributes":{
						"POSITION":12,
						"NORMAL":13,
						"TEXCOORD_0":14
					},
					"indices":15,
					"material":2
				}
			]
		}
	],
	"textures":[
		{
			"sampler":0,
			"source":0
		},
		{
			"sampler":0,
			"source":0
		},
		{
			"sampler":0,
			"source":1
		}
	],
	"images":[
		{
			"mimeType":"image/png",
			"name":"Sky_Bse",
			"uri":"Sky_Bse.png"
		},
		{
			"mimeType":"image/png",
			"name":"Bloomen_Mat",
			"uri":"Bloomen_Mat.png"
		}
	],
	"accessors":[
		{
			"bufferView":0,
			"componentType":5126,
			"count":134126,
			"max":[
				13.508513450622559,
				18.880603790283203,
				10.260909080505371
			],
			"min":[
				-17.9184627532959,
				-1.1864209175109863,
				-10.887104988098145
			],
			"type":"VEC3"
		},
		{
			"bufferView":1,
			"componentType":5126,
			"count":134126,
			"type":"VEC3"
		},
		{
			"bufferView":2,
			"componentType":5126,
			"count":134126,
			"type":"VEC2"
		},
		{
			"bufferView":3,
			"componentType":5125,
			"count":777396,
			"type":"SCALAR"
		},
		{
			"bufferView":4,
			"componentType":5126,
			"count":159,
			"max":[
				12.029523849487305,
				15.558138847351074,
				8.517982482910156
			],
			"min":[
				-11.475309371948242,
				-0.18174557387828827,
				-8.517982482910156
			],
			"type":"VEC3"
		},
		{
			"bufferView":5,
			"componentType":5126,
			"count":159,
			"type":"VEC3"
		},
		{
			"bufferView":6,
			"componentType":5126,
			"count":159,
			"type":"VEC2"
		},
		{
			"bufferView":7,
			"componentType":5123,
			"count":492,
			"type":"SCALAR"
		},
		{
			"bufferView":8,
			"componentType":5126,
			"count":42,
			"max":[
				2.7750630378723145,
				23.417736053466797,
				9.954084396362305
			],
			"min":[
				-27.023630142211914,
				6.561290740966797,
				-9.954084396362305
			],
			"type":"VEC3"
		},
		{
			"bufferView":9,
			"componentType":5126,
			"count":42,
			"type":"VEC3"
		},
		{
			"bufferView":10,
			"componentType":5126,
			"count":42,
			"type":"VEC2"
		},
		{
			"bufferView":11,
			"componentType":5123,
			"count":180,
			"type":"SCALAR"
		},
		{
			"bufferView":12,
			"componentType":5126,
			"count":792,
			"max":[
				9.616683959960938,
				2.9661521911621094,
				7.5618743896484375
			],
			"min":[
				-5.318558216094971,
				-0.25001853704452515,
				-8.189998626708984
			],
			"type":"VEC3"
		},
		{
			"bufferView":13,
			"componentType":5126,
			"count":792,
			"type":"VEC3"
		},
		{
			"bufferView":14,
			"componentType":5126,
			"count":792,
			"type":"VEC2"
		},
		{
			"bufferView":15,
			"componentType":5123,
			"count":792,
			"type":"SCALAR"
		}
	],
	"bufferViews":[
		{
			"buffer":0,
			"byteLength":1609512,
			"byteOffset":0,
			"target":34962
		},
		{
			"buffer":0,
			"byteLength":1609512,
			"byteOffset":1609512,
			"target":34962
		},
		{
			"buffer":0,
			"byteLength":1073008,
			"byteOffset":3219024,
			"target":34962
		},
		{
			"buffer":0,
			"byteLength":3109584,
			"byteOffset":4292032,
			"target":34963
		},
		{
			"buffer":0,
			"byteLength":1908,
			"byteOffset":7401616,
			"target":34962
		},
		{
			"buffer":0,
			"byteLength":1908,
			"byteOffset":7403524,
			"target":34962
		},
		{
			"buffer":0,
			"byteLength":1272,
			"byteOffset":7405432,
			"target":34962
		},
		{
			"buffer":0,
			"byteLength":984,
			"byteOffset":7406704,
			"target":34963
		},
		{
			"buffer":0,
			"byteLength":504,
			"byteOffset":7407688,
			"target":34962
		},
		{
			"buffer":0,
			"byteLength":504,
			"byteOffset":7408192,
			"target":34962
		},
		{
			"buffer":0,
			"byteLength":336,
			"byteOffset":7408696,
			"target":34962
		},
		{
			"buffer":0,
			"byteLength":360,
			"byteOffset":7409032,
			"target":34963
		},
		{
			"buffer":0,
			"byteLength":9504,
			"byteOffset":7409392,
			"target":34962
		},
		{
			"buffer":0,
			"byteLength":9504,
			"byteOffset":7418896,
			"target":34962
		},
		{
			"buffer":0,
			"byteLength":6336,
			"byteOffset":7428400,
			"target":34962
		},
		{
			"buffer":0,
			"byteLength":1584,
			"byteOffset":7434736,
			"target":34963
		}
	],
	"samplers":[
		{
			"magFilter":9729,
			"minFilter":9987
		}
	],
	"buffers":[
		{
			"byteLength":7436320,
			"uri":"OOP_Swamp_Level_BO.bin"
		}
	]
}
