{
  "accessors": [
    {
      "bufferView": 0,
      "componentType": 5125,
      "count": 139470,
      "type": "SCALAR"
    },
    {
      "bufferView": 1,
      "componentType": 5126,
      "count": 24566,
      "max": [
        59054.5390625,
        48978.6953125,
        597.365234375
      ],
      "min": [
        -66753.09375,
        -51699.0234375,
        -62607.078125
      ],
      "type": "VEC3"
    },
    {
      "bufferView": 2,
      "componentType": 5126,
      "count": 24566,
      "type": "VEC3"
    },
    {
      "bufferView": 3,
      "componentType": 5126,
      "count": 24566,
      "type": "VEC4"
    },
    {
      "bufferView": 4,
      "componentType": 5126,
      "count": 24566,
      "type": "VEC2"
    },
    {
      "bufferView": 5,
      "componentType": 5125,
      "count": 4548,
      "type": "SCALAR"
    },
    {
      "bufferView": 6,
      "componentType": 5126,
      "count": 1044,
      "max": [
        111698.875,
        56901.0859375,
        21006.419921875
      ],
      "min": [
        -106367.2265625,
        -60569.3671875,
        -67539.4453125
      ],
      "type": "VEC3"
    },
    {
      "bufferView": 7,
      "componentType": 5126,
      "count": 1044,
      "type": "VEC3"
    },
    {
      "bufferView": 8,
      "componentType": 5126,
      "count": 1044,
      "type": "VEC4"
    },
    {
      "bufferView": 9,
      "componentType": 5126,
      "count": 1044,
      "type": "VEC2"
    },
    {
      "bufferView": 10,
      "componentType": 5125,
      "count": 14388,
      "type": "SCALAR"
    },
    {
      "bufferView": 11,
      "componentType": 5126,
      "count": 3472,
      "max": [
        122894.53125,
        42450.046875,
        1303.40234375
      ],
      "min": [
        -107401.7109375,
        -85254.0703125,
        -44706.125
      ],
      "type": "VEC3"
    },
    {
      "bufferView": 12,
      "componentType": 5126,
      "count": 3472,
      "type": "VEC3"
    },
    {
      "bufferView": 13,
      "componentType": 5126,
      "count": 3472,
      "type": "VEC4"
    },
    {
      "bufferView": 14,
      "componentType": 5126,
      "count": 3472,
      "type": "VEC2"
    },
    {
      "bufferView": 15,
      "componentType": 5125,
      "count": 2925,
      "type": "SCALAR"
    },
    {
      "bufferView": 16,
      "componentType": 5126,
      "count": 587,
      "max": [
        -9380.09765625,
        30891.501953125,
        -3261.837890625
      ],
      "min": [
        -87703.109375,
        -44459.2734375,
        -63469.7890625
      ],
      "type": "VEC3"
    },
    {
      "bufferView": 17,
      "componentType": 5126,
      "count": 587,
      "type": "VEC3"
    },
    {
      "bufferView": 18,
      "componentType": 5126,
      "count": 587,
      "type": "VEC4"
    },
    {
      "bufferView": 19,
      "componentType": 5126,
      "count": 587,
      "type": "VEC2"
    },
    {
      "bufferView": 20,
      "componentType": 5125,
      "count": 135564,
      "type": "SCALAR"
    },
    {
      "bufferView": 21,
      "componentType": 5126,
      "count": 23148,
      "max": [
        1218.69909667969,
        587.695495605469,
        560.013122558594
      ],
      "min": [
        -1025.11486816406,
        -132.989318847656,
        -1058.63366699219
      ],
      "type": "VEC3"
    },
    {
      "bufferView": 22,
      "componentType": 5126,
      "count": 23148,
      "type": "VEC3"
    },
    {
      "bufferView": 23,
      "componentType": 5126,
      "count": 23148,
      "type": "VEC4"
    },
    {
      "bufferView": 24,
      "componentType": 5126,
      "count": 23148,
      "type": "VEC2"
    }
  ],
  "asset": {
    "generator": "Adobe Substance 3D Painter 9.0.0",
    "version": "2.0"
  },
  "bufferViews": [
    {
      "buffer": 0,
      "byteLength": 557880,
      "target": 34963
    },
    {
      "buffer": 0,
      "byteLength": 294792,
      "byteOffset": 557880,
      "target": 34962
    },
    {
      "buffer": 0,
      "byteLength": 294792,
      "byteOffset": 852672,
      "target": 34962
    },
    {
      "buffer": 0,
      "byteLength": 393056,
      "byteOffset": 1147464,
      "target": 34962
    },
    {
      "buffer": 0,
      "byteLength": 196528,
      "byteOffset": 1540520,
      "target": 34962
    },
    {
      "buffer": 0,
      "byteLength": 18192,
      "byteOffset": 1737048,
      "target": 34963
    },
    {
      "buffer": 0,
      "byteLength": 12528,
      "byteOffset": 1755240,
      "target": 34962
    },
    {
      "buffer": 0,
      "byteLength": 12528,
      "byteOffset": 1767768,
      "target": 34962
    },
    {
      "buffer": 0,
      "byteLength": 16704,
      "byteOffset": 1780296,
      "target": 34962
    },
    {
      "buffer": 0,
      "byteLength": 8352,
      "byteOffset": 1797000,
      "target": 34962
    },
    {
      "buffer": 0,
      "byteLength": 57552,
      "byteOffset": 1805352,
      "target": 34963
    },
    {
      "buffer": 0,
      "byteLength": 41664,
      "byteOffset": 1862904,
      "target": 34962
    },
    {
      "buffer": 0,
      "byteLength": 41664,
      "byteOffset": 1904568,
      "target": 34962
    },
    {
      "buffer": 0,
      "byteLength": 55552,
      "byteOffset": 1946232,
      "target": 34962
    },
    {
      "buffer": 0,
      "byteLength": 27776,
      "byteOffset": 2001784,
      "target": 34962
    },
    {
      "buffer": 0,
      "byteLength": 11700,
      "byteOffset": 2029560,
      "target": 34963
    },
    {
      "buffer": 0,
      "byteLength": 7044,
      "byteOffset": 2041260,
      "target": 34962
    },
    {
      "buffer": 0,
      "byteLength": 7044,
      "byteOffset": 2048304,
      "target": 34962
    },
    {
      "buffer": 0,
      "byteLength": 9392,
      "byteOffset": 2055348,
      "target": 34962
    },
    {
      "buffer": 0,
      "byteLength": 4696,
      "byteOffset": 2064740,
      "target": 34962
    },
    {
      "buffer": 0,
      "byteLength": 542256,
      "byteOffset": 2069436,
      "target": 34963
    },
    {
      "buffer": 0,
      "byteLength": 277776,
      "byteOffset": 2611692,
      "target": 34962
    },
    {
      "buffer": 0,
      "byteLength": 277776,
      "byteOffset": 2889468,
      "target": 34962
    },
    {
      "buffer": 0,
      "byteLength": 370368,
      "byteOffset": 3167244,
      "target": 34962
    },
    {
      "buffer": 0,
      "byteLength": 185184,
      "byteOffset": 3537612,
      "target": 34962
    }
  ],
  "buffers": [
    {
      "byteLength": 3722796,
      "uri": "ASM - PBR Metallic Roughness.bin"
    }
  ],
  "images": [
    {
      "uri": "Crystal_Mat_baseColor.png"
    },
    {
      "uri": "Crystal_Mat_occlusionRoughnessMetallic.png"
    },
    {
      "uri": "Crystal_Mat_normal.png"
    },
    {
      "uri": "Crystal_Mat_emissive.png"
    },
    {
      "uri": "Iron_Mat_baseColor.png"
    },
    {
      "uri": "Iron_Mat_occlusionRoughnessMetallic.png"
    },
    {
      "uri": "Iron_Mat_normal.png"
    },
    {
      "uri": "Rock_Mat_baseColor.png"
    },
    {
      "uri": "Rock_Mat_occlusionRoughnessMetallic.png"
    },
    {
      "uri": "Rock_Mat_normal.png"
    },
    {
      "uri": "Rope_Mat_baseColor.png"
    },
    {
      "uri": "Rope_Mat_occlusionRoughnessMetallic.png"
    },
    {
      "uri": "Rope_Mat_normal.png"
    },
    {
      "uri": "Wood_Mat_baseColor.png"
    },
    {
      "uri": "Wood_Mat_occlusionRoughnessMetallic.png"
    },
    {
      "uri": "Wood_Mat_normal.png"
    }
  ],
  "materials": [
    {
      "alphaMode": "OPAQUE",
      "emissiveFactor": [
        1.0,
        1.0,
        1.0
      ],
      "emissiveTexture": {
        "index": 3
      },
      "name": "Crystal_Mat",
      "normalTexture": {
        "index": 2
      },
      "occlusionTexture": {
        "index": 1
      },
      "pbrMetallicRoughness": {
        "baseColorTexture": {
          "index": 0
        },
        "metallicRoughnessTexture": {
          "index": 1
        }
      }
    },
    {
      "alphaMode": "OPAQUE",
      "name": "Iron_Mat",
      "normalTexture": {
        "index": 6
      },
      "occlusionTexture": {
        "index": 5
      },
      "pbrMetallicRoughness": {
        "baseColorTexture": {
          "index": 4
        },
        "metallicRoughnessTexture": {
          "index": 5
        }
      }
    },
    {
      "alphaMode": "OPAQUE",
      "name": "Rock_Mat",
      "normalTexture": {
        "index": 9
      },
      "occlusionTexture": {
        "index": 8
      },
      "pbrMetallicRoughness": {
        "baseColorTexture": {
          "index": 7
        },
        "metallicRoughnessTexture": {
          "index": 8
        }
      }
    },
    {
      "alphaMode": "OPAQUE",
      "name": "Rope_Mat",
      "normalTexture": {
        "index": 12
      },
      "occlusionTexture": {
        "index": 11
      },
      "pbrMetallicRoughness": {
        "baseColorTexture": {
          "index": 10
        },
        "metallicRoughnessTexture": {
          "index": 11
        }
      }
    },
    {
      "alphaMode": "OPAQUE",
      "name": "Wood_Mat",
      "normalTexture": {
        "index": 15
      },
      "occlusionTexture": {
        "index": 14
      },
      "pbrMetallicRoughness": {
        "baseColorTexture": {
          "index": 13
        },
        "metallicRoughnessTexture": {
          "index": 14
        }
      }
    }
  ],
  "meshes": [
    {
      "name": "Ropes",
      "primitives": [
        {
          "attributes": {
            "NORMAL": 2,
            "POSITION": 1,
            "TANGENT": 3,
            "TEXCOORD_0": 4
          },
          "indices": 0,
          "material": 3,
          "mode": 4
        }
      ]
    },
    {
      "name": "Wood",
      "primitives": [
        {
          "attributes": {
            "NORMAL": 7,
            "POSITION": 6,
            "TANGENT": 8,
            "TEXCOORD_0": 9
          },
          "indices": 5,
          "material": 4,
          "mode": 4
        }
      ]
    },
    {
      "name": "Iron",
      "primitives": [
        {
          "attributes": {
            "NORMAL": 12,
            "POSITION": 11,
            "TANGENT": 13,
            "TEXCOORD_0": 14
          },
          "indices": 10,
          "material": 1,
          "mode": 4
        }
      ]
    },
    {
      "name": "Crystal",
      "primitives": [
        {
          "attributes": {
            "NORMAL": 17,
            "POSITION": 16,
            "TANGENT": 18,
            "TEXCOORD_0": 19
          },
          "indices": 15,
          "material": 0,
          "mode": 4
        }
      ]
    },
    {
      "name": "Rock",
      "primitives": [
        {
          "attributes": {
            "NORMAL": 22,
            "POSITION": 21,
            "TANGENT": 23,
            "TEXCOORD_0": 24
          },
          "indices": 20,
          "material": 2,
          "mode": 4
        }
      ]
    }
  ],
  "nodes": [
    {
      "children": [
        1,
        3,
        5,
        7,
        9
      ],
      "name": "RootNode"
    },
    {
      "children": [
        2
      ],
      "name": "Ropes",
      "rotation": [
        0.707106828689575,
        0.0,
        0.0,
        0.707106709480286
      ],
      "scale": [
        0.00999999977648258,
        0.00999999977648258,
        0.00999999977648258
      ]
    },
    {
      "mesh": 0,
      "name": "Ropes"
    },
    {
      "children": [
        4
      ],
      "name": "Wood",
      "rotation": [
        0.707106828689575,
        0.0,
        0.0,
        0.707106709480286
      ],
      "scale": [
        0.00999999977648258,
        0.00999999977648258,
        0.00999999977648258
      ]
    },
    {
      "mesh": 1,
      "name": "Wood"
    },
    {
      "children": [
        6
      ],
      "name": "Iron",
      "rotation": [
        0.707106828689575,
        0.0,
        0.0,
        0.707106709480286
      ],
      "scale": [
        0.00999999977648258,
        0.00999999977648258,
        0.00999999977648258
      ]
    },
    {
      "mesh": 2,
      "name": "Iron"
    },
    {
      "children": [
        8
      ],
      "name": "Crystal",
      "rotation": [
        0.707106828689575,
        0.0,
        0.0,
        0.707106709480286
      ],
      "scale": [
        0.00999999977648258,
        0.00999999977648258,
        0.00999999977648258
      ]
    },
    {
      "mesh": 3,
      "name": "Crystal"
    },
    {
      "children": [
        10
      ],
      "name": "Rock",
      "rotation": [
        -8.14603353660459e-08,
        0.0,
        0.0,
        1.0
      ],
      "translation": [
        0.0,
        96.4751281738281,
        0.0
      ]
    },
    {
      "mesh": 4,
      "name": "Rock"
    }
  ],
  "samplers": [
    {
      "magFilter": 9729,
      "minFilter": 9985,
      "wrapS": 10497,
      "wrapT": 10497
    }
  ],
  "scene": 0,
  "scenes": [
    {
      "name": "Scene",
      "nodes": [
        0
      ]
    }
  ],
  "textures": [
    {
      "sampler": 0,
      "source": 0
    },
    {
      "sampler": 0,
      "source": 1
    },
    {
      "sampler": 0,
      "source": 2
    },
    {
      "sampler": 0,
      "source": 3
    },
    {
      "sampler": 0,
      "source": 4
    },
    {
      "sampler": 0,
      "source": 5
    },
    {
      "sampler": 0,
      "source": 6
    },
    {
      "sampler": 0,
      "source": 7
    },
    {
      "sampler": 0,
      "source": 8
    },
    {
      "sampler": 0,
      "source": 9
    },
    {
      "sampler": 0,
      "source": 10
    },
    {
      "sampler": 0,
      "source": 11
    },
    {
      "sampler": 0,
      "source": 12
    },
    {
      "sampler": 0,
      "source": 13
    },
    {
      "sampler": 0,
      "source": 14
    },
    {
      "sampler": 0,
      "source": 15
    }
  ]
}